# xmcd CD database file generated by OrangeCD 5.2
#
# Track frame offsets:
#	150
#	11167
#	26387
#	39622
#	49765
#	64775
#	77460
#	88660
#	106932
#	119697
#
# Disc length: 1702 seconds
#
# Revision: 19
# Processed by: cddbd v1.5.1PL2 Copyright (c) Steve Scherf et al.
# Submitted via: OrangeCD 5.2
#
DISCID=7906a40a
DTITLE=Various Artist - Christmas Classics Redneck Style
DYEAR=1997
DGENRE=Holiday
TTITLE0=Redneck 12 Days Of Christmas
TTITLE1=Grandma Got Run Over By A Reindeer
TTITLE2=Chasin' That Neon Reindeer
TTITLE3=Boogie Woogie Santa Claus
TTITLE4=Leory The Redneck Reindeer
TTITLE5=Nuttin' For Christmas
TTITLE6=Santa Got Lost In Texas
TTITLE7=Santa's Gonna Come In A Pickup Truck
TTITLE8=You're A Mean One Mr. Grinch
TTITLE9=All I Want For Christmas Is My Two Front Teeth
EXTD=
EXTT0=
EXTT1=
EXTT2=
EXTT3=
EXTT4=
EXTT5=
EXTT6=
EXTT7=
EXTT8=
EXTT9=
PLAYORDER=
